# xmcd
#
# Track frame offsets:
# 150
# 28665
# 50112
# 69092
# 89232
# 107832
# 124339
# 142464
# 157026
# 174986
# 188631
# 208299
# 225914
# 246234
# 265444
# 287294
# 308279
#
# Disc length: 4368 seconds
#
#
# Revision: 0
# Processed by: cddbd v1.5PL3 Copyright (c) Steve Scherf et al.
# Submitted via: FreeRIP 2.60 
#
DISCID=fa110e11
DTITLE=Sting - From past to present
DYEAR=1900
DGENRE=
TTITLE0=brand new day
TTITLE1=desert rose
TTITLE2=every breath u take
TTITLE3=english man in new york
TTITLE4=doo doo doo da da da da
TTITLE5=fields of gold
TTITLE6=don't stand close to me
TTITLE7=Raxanne
TTITLE8=russians
TTITLE9=can't stand losing you
TTITLE10=evry little thing she does is magic
TTITLE11=Fragile
TTITLE12=if i ever lose my faith
TTITLE13=if you love them set them free
TTITLE14=message in the bottle
TTITLE15=seven days
TTITLE16=when we dance
EXTD=
EXTT0=
EXTT1=
EXTT2=
EXTT3=
EXTT4=
EXTT5=
EXTT6=
EXTT7=
EXTT8=
EXTT9=
EXTT10=
EXTT11=
EXTT12=
EXTT13=
EXTT14=
EXTT15=
EXTT16=
PLAYORDER=
